<?xml version="1.0" encoding="utf-8"?>
<?xml-stylesheet type="text/xsl" href="rss1.xsl"?>
<rss version="2.0" xmlns:atom="http://www.w3.org/2005/Atom" xmlns:content="http://purl.org/rss/1.0/modules/content/" xmlns:dc="http://purl.org/dc/elements/1.1/" xmlns:media="http://search.yahoo.com/mrss/">
<channel>
 <title>Getty</title>
 <link>http://www.gettyimg.com/</link>
 <atom:link href="http://www.gettyimg.com/" rel="self" type="application/rss+xml" />

 
                <item>
                <title><![CDATA[【Cinema Center】SERIES - The D'Amelio Show - Season 3 - 1080p Disney+ WEB-DL DDP5.1 H.264-LAZY]]></title>
                <link><![CDATA[https://sharemania.us/threads/the-damelio-show-season-3-1080p-disney-web-dl-ddp5-1-h-264-lazy.235818/]]></link>
                <description><![CDATA[<article>
<blockquote class="messageText SelectQuoteContainer ugc baseHtml">
The D'Amelio Show:<img src="https://i.imgur.com/RBIMwNU.jpg" class="bbCodeImage LbImage" alt="[​IMG]" data-url="https://i.imgur.com/RBIMwNU.jpg" style=""><br>
<br>
<div class="bbCodeBlock bbCodeQuote">
<aside>
<blockquote class="quoteContainer"><div class="quote"><i><b>Synopsis:</b></i><br>
From relative obscurity and a seemingly normal life, to overnight success and thrust into the Hollywood limelight overnight, the DAmelios are faced with new challenges and opportunities they could not have imagined.</div><div class="quoteExpand">Click to expand...</div></blockquote>
</aside>
</div>
<div class="ToggleTriggerAnchor bbCodeSpoilerContainer">
<button type="button" class="button bbCodeSpoilerButton ToggleTrigger Tooltip JsOnly" data-target="> .SpoilerTarget"><span>Spoiler: <span class="SpoilerTitle">MediaInfo</span></span></button>
<div class="SpoilerTarget bbCodeSpoilerText">General<br>
Unique ID : 18121465439595738714599894238039571807 (0xDA2113A16FB52F6E5C35835824EFD5F)<br>
Complete name : The.DAmelio.Show.S03E01.All.Filters.Are.Off.1080p.DSNP.WEB-DL.DDP5.1.H.264-LAZY.mkv<br>
Format : Matroska<br>
Format version : Version 4<br>
File size : 1.93 GiB<br>
Duration : 41 min 24 s<br>
Overall bit rate mode : Variable<br>
Overall bit rate : 6 667 kb/s<br>
Encoded date : UTC 2024-01-14 21:07:12<br>
Writing application : mkvmerge v82.0 ('I'm The President') 64-bit<br>
Writing library : libebml v1.4.5 + libmatroska v1.7.1<br>
<br>
Video<br>
ID : 1<br>
Format : AVC<br>
Format/Info : Advanced Video Codec<br>
Format profile : High@L4<br>
Format settings : CABAC / 4 Ref Frames<br>
Format settings, CABAC : Yes<br>
Format settings, Reference frames : 4 frames<br>
Codec ID : V_MPEG4/ISO/AVC<br>
Duration : 41 min 24 s<br>
Bit rate mode : Variable<br>
Bit rate : 6 404 kb/s<br>
Maximum bit rate : 12.7 Mb/s<br>
Width : 1 920 pixels<br>
Height : 1 080 pixels<br>
Display aspect ratio : 16:9<br>
Frame rate mode : Constant<br>
Frame rate : 23.976 (24000/1001) FPS<br>
Color space : YUV<br>
Chroma subsampling : 4:2:0<br>
Bit depth : 8 bits<br>
Scan type : Progressive<br>
Bits/(Pixel*Frame) : 0.129<br>
Stream size : 1.85 GiB (96%)<br>
Default : Yes<br>
Forced : No<br>
Color range : Limited<br>
Color primaries : BT.709<br>
Transfer characteristics : BT.709<br>
Matrix coefficients : BT.709<br>
<br>
Audio<br>
ID : 2<br>
Format : E-AC-3<br>
Format/Info : Enhanced AC-3<br>
Commercial name : Dolby Digital Plus<br>
Codec ID : A_EAC3<br>
Duration : 41 min 24 s<br>
Bit rate mode : Constant<br>
Bit rate : 256 kb/s<br>
Channel(s) : 6 channels<br>
Channel layout : L R C LFE Ls Rs<br>
Sampling rate : 48.0 kHz<br>
Frame rate : 31.250 FPS (1536 SPF)<br>
Compression mode : Lossy<br>
Stream size : 75.8 MiB (4%)<br>
Language : English<br>
Service kind : Complete Main<br>
Default : Yes<br>
Forced : No<br>
<br>
Text #1<br>
ID : 3<br>
Format : UTF-8<br>
Codec ID : S_TEXT/UTF8<br>
Codec ID/Info : UTF-8 Plain Text<br>
Duration : 41 min 7 s<br>
Bit rate : 108 b/s<br>
Count of elements : 1003<br>
Stream size : 32.8 KiB (0%)<br>
Title : SDH<br>
Language : English<br>
Default : No<br>
Forced : No<br>
<br>
Text #2<br>
ID : 4<br>
Format : UTF-8<br>
Codec ID : S_TEXT/UTF8<br>
Codec ID/Info : UTF-8 Plain Text<br>
Duration : 41 min 11 s<br>
Bit rate : 85 b/s<br>
Count of elements : 785<br>
Stream size : 25.8 KiB (0%)<br>
Language : Czech<br>
Default : No<br>
Forced : No<br>
<br>
Text #3<br>
ID : 5<br>
Format : UTF-8<br>
Codec ID : S_TEXT/UTF8<br>
Codec ID/Info : UTF-8 Plain Text<br>
Duration : 41 min 11 s<br>
Bit rate : 81 b/s<br>
Count of elements : 789<br>
Stream size : 24.6 KiB (0%)<br>
Language : Danish<br>
Default : No<br>
Forced : No<br>
<br>
Text #4<br>
ID : 6<br>
Format : UTF-8<br>
Codec ID : S_TEXT/UTF8<br>
Codec ID/Info : UTF-8 Plain Text<br>
Duration : 41 min 11 s<br>
Bit rate : 94 b/s<br>
Count of elements : 784<br>
Stream size : 28.4 KiB (0%)<br>
Language : German<br>
Default : No<br>
Forced : No<br>
<br>
Text #5<br>
ID : 7<br>
Format : UTF-8<br>
Codec ID : S_TEXT/UTF8<br>
Codec ID/Info : UTF-8 Plain Text<br>
Duration : 41 min 11 s<br>
Bit rate : 142 b/s<br>
Count of elements : 802<br>
Stream size : 43.1 KiB (0%)<br>
Language : Greek<br>
Default : No<br>
Forced : No<br>
<br>
Text #6<br>
ID : 8<br>
Format : UTF-8<br>
Codec ID : S_TEXT/UTF8<br>
Codec ID/Info : UTF-8 Plain Text<br>
Duration : 41 min 11 s<br>
Bit rate : 86 b/s<br>
Count of elements : 794<br>
Stream size : 26.1 KiB (0%)<br>
Title : Latin American<br>
Language : Spanish<br>
Default : No<br>
Forced : No<br>
<br>
Text #7<br>
ID : 9<br>
Format : UTF-8<br>
Codec ID : S_TEXT/UTF8<br>
Codec ID/Info : UTF-8 Plain Text<br>
Duration : 41 min 11 s<br>
Bit rate : 86 b/s<br>
Count of elements : 794<br>
Stream size : 26.1 KiB (0%)<br>
Title : European<br>
Language : Spanish<br>
Default : No<br>
Forced : No<br>
<br>
Text #8<br>
ID : 10<br>
Format : UTF-8<br>
Codec ID : S_TEXT/UTF8<br>
Codec ID/Info : UTF-8 Plain Text<br>
Duration : 41 min 11 s<br>
Bit rate : 87 b/s<br>
Count of elements : 787<br>
Stream size : 26.4 KiB (0%)<br>
Language : Finnish<br>
Default : No<br>
Forced : No<br>
<br>
Text #9<br>
ID : 11<br>
Format : UTF-8<br>
Codec ID : S_TEXT/UTF8<br>
Codec ID/Info : UTF-8 Plain Text<br>
Duration : 41 min 11 s<br>
Bit rate : 85 b/s<br>
Count of elements : 788<br>
Stream size : 25.7 KiB (0%)<br>
Language : French<br>
Default : No<br>
Forced : No<br>
<br>
Text #10<br>
ID : 12<br>
Format : UTF-8<br>
Codec ID : S_TEXT/UTF8<br>
Codec ID/Info : UTF-8 Plain Text<br>
Duration : 41 min 11 s<br>
Bit rate : 82 b/s<br>
Count of elements : 784<br>
Stream size : 25.0 KiB (0%)<br>
Language : Hungarian<br>
Default : No<br>
Forced : No<br>
<br>
Text #11<br>
ID : 13<br>
Format : UTF-8<br>
Codec ID : S_TEXT/UTF8<br>
Codec ID/Info : UTF-8 Plain Text<br>
Duration : 41 min 11 s<br>
Bit rate : 85 b/s<br>
Count of elements : 790<br>
Stream size : 25.9 KiB (0%)<br>
Language : Italian<br>
Default : No<br>
Forced : No<br>
<br>
Text #12<br>
ID : 14<br>
Format : UTF-8<br>
Codec ID : S_TEXT/UTF8<br>
Codec ID/Info : UTF-8 Plain Text<br>
Duration : 41 min 11 s<br>
Bit rate : 75 b/s<br>
Count of elements : 703<br>
Stream size : 22.7 KiB (0%)<br>
Language : Japanese<br>
Default : No<br>
Forced : No<br>
<br>
Text #13<br>
ID : 15<br>
Format : UTF-8<br>
Codec ID : S_TEXT/UTF8<br>
Codec ID/Info : UTF-8 Plain Text<br>
Duration : 40 min 40 s<br>
Bit rate : 98 b/s<br>
Count of elements : 808<br>
Stream size : 29.3 KiB (0%)<br>
Language : Korean<br>
Default : No<br>
Forced : No<br>
<br>
Text #14<br>
ID : 16<br>
Format : UTF-8<br>
Codec ID : S_TEXT/UTF8<br>
Codec ID/Info : UTF-8 Plain Text<br>
Duration : 41 min 11 s<br>
Bit rate : 80 b/s<br>
Count of elements : 770<br>
Stream size : 24.3 KiB (0%)<br>
Language : Dutch<br>
Default : No<br>
Forced : No<br>
<br>
Text #15<br>
ID : 17<br>
Format : UTF-8<br>
Codec ID : S_TEXT/UTF8<br>
Codec ID/Info : UTF-8 Plain Text<br>
Duration : 41 min 11 s<br>
Bit rate : 86 b/s<br>
Count of elements : 790<br>
Stream size : 26.0 KiB (0%)<br>
Language : Norwegian<br>
Default : No<br>
Forced : No<br>
<br>
Text #16<br>
ID : 18<br>
Format : UTF-8<br>
Codec ID : S_TEXT/UTF8<br>
Codec ID/Info : UTF-8 Plain Text<br>
Duration : 41 min 11 s<br>
Bit rate : 81 b/s<br>
Count of elements : 788<br>
Stream size : 24.5 KiB (0%)<br>
Language : Polish<br>
Default : No<br>
Forced : No<br>
<br>
Text #17<br>
ID : 19<br>
Format : UTF-8<br>
Codec ID : S_TEXT/UTF8<br>
Codec ID/Info : UTF-8 Plain Text<br>
Duration : 41 min 11 s<br>
Bit rate : 88 b/s<br>
Count of elements : 790<br>
Stream size : 26.6 KiB (0%)<br>
Title : Brazilian<br>
Language : Portuguese<br>
Default : No<br>
Forced : No<br>
<br>
Text #18<br>
ID : 20<br>
Format : UTF-8<br>
Codec ID : S_TEXT/UTF8<br>
Codec ID/Info : UTF-8 Plain Text<br>
Duration : 41 min 11 s<br>
Bit rate : 86 b/s<br>
Count of elements : 778<br>
Stream size : 26.0 KiB (0%)<br>
Title : European<br>
Language : Portuguese<br>
Default : No<br>
Forced : No<br>
<br>
Text #19<br>
ID : 21<br>
Format : UTF-8<br>
Codec ID : S_TEXT/UTF8<br>
Codec ID/Info : UTF-8 Plain Text<br>
Duration : 41 min 11 s<br>
Bit rate : 93 b/s<br>
Count of elements : 789<br>
Stream size : 28.1 KiB (0%)<br>
Language : Romanian<br>
Default : No<br>
Forced : No<br>
<br>
Text #20<br>
ID : 22<br>
Format : UTF-8<br>
Codec ID : S_TEXT/UTF8<br>
Codec ID/Info : UTF-8 Plain Text<br>
Duration : 41 min 11 s<br>
Bit rate : 90 b/s<br>
Count of elements : 788<br>
Stream size : 27.3 KiB (0%)<br>
Language : Slovak<br>
Default : No<br>
Forced : No<br>
<br>
Text #21<br>
ID : 23<br>
Format : UTF-8<br>
Codec ID : S_TEXT/UTF8<br>
Codec ID/Info : UTF-8 Plain Text<br>
Duration : 41 min 11 s<br>
Bit rate : 86 b/s<br>
Count of elements : 786<br>
Stream size : 26.2 KiB (0%)<br>
Language : Swedish<br>
Default : No<br>
Forced : No<br>
<br>
Text #22<br>
ID : 24<br>
Format : UTF-8<br>
Codec ID : S_TEXT/UTF8<br>
Codec ID/Info : UTF-8 Plain Text<br>
Duration : 41 min 11 s<br>
Bit rate : 87 b/s<br>
Count of elements : 791<br>
Stream size : 26.4 KiB (0%)<br>
Language : Turkish<br>
Default : No<br>
Forced : No<br>
<br>
Text #23<br>
ID : 25<br>
Format : UTF-8<br>
Codec ID : S_TEXT/UTF8<br>
Codec ID/Info : UTF-8 Plain Text<br>
Duration : 41 min 11 s<br>
Bit rate : 79 b/s<br>
Count of elements : 805<br>
Stream size : 23.9 KiB (0%)<br>
Title : Traditional<br>
Language : Chinese<br>
Default : No<br>
Forced : No<br>
<br>
Menu<br>
00:00:04.213 : en:Recap<br>
00:01:43.103 : en:Scene 1<br>
00:14:44.092 : en:Scene 2<br>
00:28:08.313 : en:Scene 3<br>
00:32:59.479 : en:Scene 4<br>
00:40:46.113 : en:Credits</div>
</div><br>
Screenshots:<br>
<img src="https://i.imgur.com/aer0g9y.jpg" class="bbCodeImage LbImage" alt="[​IMG]" data-url="https://i.imgur.com/aer0g9y.jpg" style=""> <br>
<div class="bbCodeBlock bbCodeVfcHH HiddenContent">
<div class="attribution type">Hidden Content:</div>
<blockquote>You must either reply or click 'Like' to see the hidden information contained here.</blockquote>
</div>
<div class="messageTextEndMarker">&nbsp;</div>
</blockquote>
</article>]]></description>
                <author><![CDATA[LazyRips]]></author>
                </item>

                </channel></rss>